<svg xmlns="http://www.w3.org/2000/svg" width="100%" height="100%" viewBox="0 0 256 256">
	<path d="M207.4 185.1c0 6-29.6 10.9-66 10.9s-66-4.9-66-10.9 29.5-10.9 66-10.9 66 5 66 11" fill="#ebe3d9"/>
	<path d="M121.3 183.4c13.7-.3 31 6.7 42.3-1 2.5-1.8 1.1-3 1-2.9-10.6 11.3-25 2-45.4.9-.2 0 2 2.8 2 3" fill="#3e0000"/>
	<path d="M101.7 110.1a23 23 0 0 0-27.3-4.6c-8.7 5-25 23.2-14.7 32.8 6.8 6.3 8.1 10.6 18 16.5 5.3 3.2 11.8 10.8 19.2 15 3.7 2.2 9.6 5.3 10 9.6.9 7 10.7 8.4 19.5 8 1.7-.1-3-3.6-1.4-3.9 2.6-.3 11.2 1.9 12.8 2.1a155.6 155.6 0 0 0 18.8 1.5c9.5 0 12.6-4.5 14.1-6.1 5-5 0-7.8-1.5-10.5-.5-1 .9-2.7 1.2-3.4 2.4-6.3 4-8.5 7.7-14 3-4.4 2.2 1.4 4.8-5.9 6.4-18 1.2-5.9 2-14.7.4-3.1 11.2-6.5 2.6-21.4-2.8-4.8-7.8-17.2-13.1-23.5-5.6-6.5-2.9-1-7.9-2.5-39.1-11.7-17.9 4.4-43.7-2.4-12-3.1-13.2-4-15.6 12.1-1 7.7-1.2 4.4-5.5 15.3" fill="#aa7b55"/>
	<path d="M148 165.5c7 1 16-6.4 26.3-24.7-4 48.8-68.2 47.1-80.7 8.6-1.6-4.8 1.3-23.3 6.5-33.8 14.5-29.5-.7-1.6-4 0-2.4 1-5.7 0-6.3 1.4-9 20.3-13.3 31.4-6.4 40.7 6.3 8.6 17.1 11.9 18.5 12.8.3.3 3 12 8.6 14.2 3.8 1.6 8.7 3.1 12.2 2.3 1.6-.4 1.8-3 3.4-3.2 4-.7 9.4.4 9.9.4 3 .2 15.5 4.4 23.6 2.7 9.8-2 15.1-10 16.4-11.4 1.8-1.8-11.5-5-9.6-7.2 9-10 17.3-23.2 13.4-30.5-.1-.2 10.8-7 11-15.4 0-8.7-3.7 16.5-27.2 11.2-7.3-1.6-7 15.1-10.9 15-26.3-1.2-5.5 13.3-4.7 16.9" fill="#8c5d40"/>
	<path d="M153.1 123.9c.1 1.8-14 6.6-17.7 9.3-3.4 2.7-5.7 1.6-5.9 8.1 0 1 3.5 11 4.2 12.6 3.5 7.1 6.8 11.4 15.5 10.8 2.5-.2 5.3-2.2 7.3-3.6 2.7-1.9 10.9-17 14-21.3 5.8-8-2.3-6.7-9-13.5-1-1-7-2.4-8.3-2.4" fill="#fff"/>
	<path d="M153.1 123.9c.1 1-11.8 7.5-15.4 9.1-3.5 1.6-6.7-2.4-8.2 1.2-2.4 6.2 8 21.6 8.8 22.5-1.3-4.2-4-10.3-2-13.9 2-3.6 13.4-8.8 13.3-5 0 3.7-1 10.6-2.2 20.4 2.5 0 8.2-18.5 9.7-20 2.3-2.4 7 .2 7.6 2.3s-1.9 7.9-7.8 17.3c2.2-1.9 12.4-11.6 13.9-16.7 2.3-8-5.2-12.3-9.2-14.8a37.2 37.2 0 0 0-8.5-2.4" fill="#ece1da"/>
	<path d="M109.1 80.6c-2.4.1 0-6.4 2.6-8.6 9.7-8.8 10.1-6.4 19.6-9.7 4-1.3 15.3 1 18.9 2.9 1.3.7 4 8 7.8 9.7 4.7 2.1 8 8.3 0 9.5-8.4 1.2-21.5 2.6-28.6-3-4.7-3.9-1.9 3.6-8.3.8l-12-1.6" fill="#fa9339"/>
	<path d="M130.2 81.3c-1.3 0 4.2-1.8 5.6-3 5.2-4.7 5.9-2 11-3.7 2-.8 10.3 1.2 12.3 2.2.7.4.8 1.5 2.8 2.4 2.5 1.2 4.3 2.8 0 3.4-4.5.7-12.8 3.7-16.6.7-2.5-2-.7.6-4.5.4-1.5 0-24.5-3-10.6-2.4" fill="#8b4519"/>
	<path d="M85.2 105.8c-2.2-2.4-23 29.7-24.8 31.6-4 3.8 2 5.8 8.8 11.5 12 10 9.7 9 18.3 13 0-.1 0-.2-.7-1-.5-.3 2.6-8.8 1.9-9.5s-2.3 4.3-4.1 7.4c-1.7-1.6-4.2-4-4.1-4.4 2.7-6.5 10-22.5 8.8-23.2-1.4-1-9.2 17.4-11.9 20.4-1 1-3.4-.4-4.2-1.3a2.1 2.1 0 0 1-.8-2.4c4.3-9.2 21.2-38.5 19.8-39.4-1.2-1-16.1 26.5-22.3 34.7-2.2 2.8-5-2-6.2-2.8a542 542 0 0 0 21.5-34.6m62.8 11 1.7 1.8a7.4 7.4 0 0 1-.1-4.8c-1.8.6-2.8 1.6-1.6 3m24.4-13.7a1.9 1.9 0 0 1 .6 0 3.8 3.8 0 1 0 1.2 2.8v-.4a1.9 1.9 0 1 1-1.8-2.4" fill="#3e0000"/>
	<path d="M123 180.9c-.4-.3-1.4-.8-1.6-.7-.3.2 1.5 2.6.7 4.4s-11.1-1.3-11.7-2.7c-.7-1.3 1.2-5.7.8-7s-3.5-3-5.4-4c-15.5-8.5-46.2-33.2-44.7-42 1.4-8.5 15-24 18.2-24.7s15.4 1.3 15.7.4a47 47 0 0 0-19.8-6.5c-3.3 1-24.6 22.8-26 30.8-3.4 19 46.7 43.4 53.3 47.3 2 1.1-1.5 5.7 0 8.2 2 3.2 25.5 5.6 26 3.5.3-1.7-3.2-5.4-5.4-7" fill="#3e0000"/>
	<path d="M151.6 162.7a9.9 9.9 0 0 1-4.1.7c4.2-10.7 8.6-22.6 10.8-37a54 54 0 0 0 11.5 10.6 70.4 70.4 0 0 1-18.2 25.7m-6 .5a8 8 0 0 1-2.9-.7c-3-2-9.5-14.4-11-23a54 54 0 0 0 21.3-12.7 240.4 240.4 0 0 1-7.4 36.4m-.8-82.8c-4.8 0-9.6.4-13.3.6 8-6.3 27-7.4 29-.5-3.9 0-9.6-.3-15.7-.1m-21-.2c-2-2.1-5.4-7-7.6-7.1-.8 0-2.8 1.2-5.1 3 1-7.6 11.4-11.8 21.2-12.6 2.3 1.8 4.3 4 7 9.8-4.5.2-8.2.6-9.4 1.3a20.2 20.2 0 0 0-6 5.7m24-14a30.1 30.1 0 0 1 5 7c-2.9-.2-5.9-.2-8.7-.2a28.6 28.6 0 0 0-7.3-9.8 20 20 0 0 1 11 3m28.8 21c0-2.4 3.8-4.7 3.5-7.6-.2-2-8.5-5.8-10.3-5-1.5.6-2.4 3.2-3.6 4.7.5-2 .7-3.8 0-4.6-.4-.6-3.7-1-8-1.3a33.5 33.5 0 0 0-7.6-9.8c-2.5-2.2-8.9-2.9-16-2.2-.8-.5-1-.6-2.8-.4-1.7.2-1.8.6-1.5 1-10.5 1.7-21.4 6-23.7 12.3a15.7 15.7 0 0 0-.7 5.8c-3.2 2.9-6 5.7-6 6.6 0 2 3.5 4.9 3.8 6.4s-6.4 11.6-10.4 25.6c-4.9 17.2-2 41 13.4 40.8 8.3 0 6.2-12.7.6-12.4-1.7 0-.7 10.3-4.5 8.6-6.8-3-7.7-20.8-2.8-33.2 9.8-24.9 13.6-26.2 13.3-28s-4.2-4.9-4.2-6c-.2-1.5 5.5-6.8 7.1-6.2 1.5.5 4 6.1 6 6.5 1.9.3 37-5.9 45.6-2s21 32 20 34.9-8.8 8-16 7.6c-4.9-.2-11.4-4.8-14.1-7.2l.2-.1a6.7 6.7 0 0 1-5 0c-4 3.4-11 8-17.4 8.3-8.2.6-16.4-5-17.7-7.4-1.5-2.7 4-13 3.3-13.7-1.6-1.3-16 14.1-14.5 19.5 1.3 4.1 10.3 8.3 17.6 10a85 85 0 0 0 12.8 25c3 2 11.6 2.7 15.2 1.2a63.4 63.4 0 0 0 21.8-27 22 22 0 0 0 4.5-1c-1.5 23-23 38.8-22.2 40.4.9 1.5 13.2-2.2 14.6-.7 1.4 1.3-4.6 8-4.2 8s14.8-9.3 13.7-13.2c-.6-2.3-9.5-1.1-10-2-.6-.9 15.3-12 19-37.3a14 14 0 0 0 5.3-4.8c2-4.6-18-39.6-18-40.2" fill="#3e0000"/>
	<path d="M138.7 103.1a1.9 1.9 0 0 1 .6 0 3.8 3.8 0 1 0 1.2 2.8v-.4a1.9 1.9 0 0 1-1.4 1.3 1.9 1.9 0 0 1-.4 0 1.9 1.9 0 0 1 0-3.8m31.8 6.6a3.7 3.7 0 1 0-3.7-3.7 3.7 3.7 0 0 0 3.7 3.7" fill="#3e0000"/>
	<path d="M170.5 108a2.2 2.2 0 1 0-2.2-2.2 2.2 2.2 0 0 0 2.2 2.2"/>
	<path d="M172.4 105.6a1.1 1.1 0 1 0-1-1 1.1 1.1 0 0 0 1 1" fill="#fff"/>
	<path d="M136.8 109.6a3.7 3.7 0 1 0-3.7-3.7 3.7 3.7 0 0 0 3.7 3.7" fill="#3e0000"/>
	<path d="M136.8 108a2.2 2.2 0 1 0-2.1-2.2 2.2 2.2 0 0 0 2.2 2.2"/>
	<path d="M138.7 105.6a1.1 1.1 0 1 0-1-1 1.1 1.1 0 0 0 1 1" fill="#fff"/>
	<path d="M153.1 122.1c-.3-.2 1-2 1.3-3.2.4-1.6-1-2-2-1.8-1.9.4-.6 2.5-.2 3.3.4.6.1 1-1 0l-1.4-1.6-1.8-2c-4-4.8 17.1-5.3 14.8-.7a20 20 0 0 1-3 4.2c-1.8 2 .2-1.5.2-2.3 0-1-.6-.8-1-.5-1 1 1 5-3.2 5.3a4 4 0 0 1-2.7-.7"/>
	<path d="M81.6 104.2c7.7.5 13 2.1 20.6 4.8-2.5-2.9-6.2-4.4-13-7.3-3-1.2-6 .8-7.6 2.5m11.7 47.3c-1.6 2.9-32.3-22.4-34.5-23.7-4.7-3 1.7-8.8 7.1-15.8 9.6-12.3 4.3-5 11.8-10.7 0 0 11.3 10 11 10.3-.5.6-12.4-8-13.1-7.3-1.3 1.4-2.5 2.7-2.2 3 4.5 4.8 17.6 13.8 16.5 15-1.6 1.7-14.3-9.3-18-11.9-3.3-2.2-4.7 3.5-4.1 4.3 6 8 28 23.6 26.9 24.8-1 1.1-20.2-13.2-28.5-19.6-2.8-2.2-3.8 3-4.9 4.2 2.4 2.2 32.4 26.6 32 27.4" fill="#3e0000"/>
</svg>
