<svg xmlns="http://www.w3.org/2000/svg" width="100%" height="100%" viewBox="0 0 256 256">
	<path d="M110.2 160.8c-5.7 14.9-22.2 24.3-39.7 25.2.9-16.8 10.2-34 25.5-39.7l3 3.1c-9.2 9.2-12.4 16.8-13 21 4.3-.6 12.2-3.7 21.1-12.7Z" fill="#ffbf13"/>
	<path d="M102.3 97a49.2 49.2 0 0 0-32.8 14.8 52.3 52.3 0 0 0-9.5 12.9c8.7-6.6 18.4-8.5 29.3-2.3a128 128 0 0 1 13-25.4Zm29.6 99.5a52 52 0 0 0 12.8-9.5 49 49 0 0 0 14.8-32.9 139.1 139.1 0 0 1-25.4 13.1c6.1 11 4.4 20.6-2.3 29.3Zm64.3-136.3L189 60c-53 0-82.3 42.2-91.6 74l25.2 25.2c32.9-10.6 73.9-38.6 73.9-91V68l-.3-7.6Zm-33.8 45.3a11.4 11.4 0 1 1 11.3-11.4 11.4 11.4 0 0 1-11.3 11.4Z" fill="#231c4c"/>
</svg>
