<svg xmlns="http://www.w3.org/2000/svg" width="100%" height="100%" viewBox="0 0 256 256">
	<g transform="translate(66 60)">
		<path d="M29.767 111.291c3.061-5.129 5.617-13.162 0-21.454-3.735-5.514-10.727-11.152-10.727-16.094 0-6.564 15.946-8.968 21.454-16.09 4.869-6.3-.443-17.453-2.835-21.461-2.159-3.62-7.336-9.464-11.259-13.132a61.8 61.8 0 0 0-5.927 96.607c3.97-2.24 8.011-6.224 9.294-8.376Z" fill="#02a786"/>
		<path d="M61.947 11.799A61.607 61.607 0 0 0 26.401 23.06c3.922 3.668 9.095 9.511 11.258 13.136 2.392 4.008 7.7 15.164 2.835 21.461-5.509 7.121-21.454 9.526-21.454 16.089 0 4.939 6.992 10.576 10.727 16.09 5.617 8.291 3.061 16.324 0 21.454-1.283 2.15-5.324 6.137-9.293 8.377a61.643 61.643 0 0 0 41.473 16.026c.948 0 1.87-.1 2.808-.142l-2.808-2.808c-11.554-9.341-12.291-40.069 5.9-47.2 9.653-3.783 12.781 17.328 31.711 12.045 3.458-.965 12.866 5.161 10.175 15.576A61.948 61.948 0 0 0 61.947 11.799Z" fill="#badefc"/>
		<path d="M99.558 97.591c-18.93 5.283-22.059-15.828-31.711-12.047-18.191 7.129-17.453 37.857-5.9 47.2l2.808 2.808a61.789 61.789 0 0 0 44.978-22.384c2.691-10.416-6.718-16.542-10.175-15.577Z" fill="#02a786"/>
		<path d="M91.446 0a26.549 26.549 0 0 0-26.549 26.549c0 15.839 20.1 36.278 25.323 41.317a1.758 1.758 0 0 0 2.452 0c5.22-5.04 25.325-25.478 25.325-41.317A26.549 26.549 0 0 0 91.446 0Z" fill="#e74c3c"/>
		<circle cx="8.85" cy="8.85" r="8.85" transform="translate(82.596 17.699)" fill="#fff"/>
	</g>
</svg>
