<svg xmlns="http://www.w3.org/2000/svg" width="100%" height="100%" viewBox="0 0 256 256">
	<path d="M73.4 147.551a3.234 3.234 0 0 1-3.234-3.234v-9.7h-3.23A12.936 12.936 0 0 1 54 121.679V69.936A12.936 12.936 0 0 1 66.936 57h58.211a12.936 12.936 0 0 1 12.936 12.936v51.743a12.936 12.936 0 0 1-12.936 12.936H90.709l-15.284 12.228a3.234 3.234 0 0 1-2.025.708Z" fill="#02a786"/>
	<path d="M183.358 199.294a3.234 3.234 0 0 1-2.021-.708l-15.284-12.228h-34.438a12.936 12.936 0 0 1-12.936-12.936v-51.743a12.936 12.936 0 0 1 12.936-12.936h58.211a12.936 12.936 0 0 1 12.936 12.936v51.743a12.936 12.936 0 0 1-12.936 12.936h-3.234v9.7a3.234 3.234 0 0 1-3.234 3.236Z" fill="#0d47a1"/>
	<path d="m170.546 166.955-2.795-9.178h-14.058l-2.794 9.178h-8.809l13.609-38.714h9.992l13.66 38.714Zm-4.748-16.034q-3.881-12.474-4.362-14.109t-.715-2.587q-.87 3.387-4.984 16.696Z" fill="#fff"/>
	<path d="M110.051 86.293a36.091 36.091 0 0 1-3.261 8.866 36.776 36.776 0 0 1-5.207 7.474 41.143 41.143 0 0 0 16.451 6.432 23.905 23.905 0 0 0-3.991 7.157 51.682 51.682 0 0 1-17.677-8.822 53.529 53.529 0 0 1-18.168 8.88 23.546 23.546 0 0 0-3.8-6.791 46.246 46.246 0 0 0 16.817-6.84 40.6 40.6 0 0 1-5.708-7.926 38.846 38.846 0 0 1-3.489-8.424h-.906c-2.173 0-4.2.091-6.022.272v-7.027a49.065 49.065 0 0 0 6.206.323h10.778v-2.908a16.513 16.513 0 0 0-.268-3.079h7.826a16.005 16.005 0 0 0-.272 3.033v2.946h11.461a49.868 49.868 0 0 0 6.251-.323v7.023a57.828 57.828 0 0 0-5.982-.276Zm-20.7 0a27.728 27.728 0 0 0 3.033 6.84 27.11 27.11 0 0 0 3.806 5.074 24.8 24.8 0 0 0 3.577-5.029 25.814 25.814 0 0 0 2.72-6.885Z" fill="#fff"/>
</svg>
