<svg xmlns="http://www.w3.org/2000/svg" width="100%" height="100%" viewBox="0 0 256 256">
	<path d="M164 185.7A68 68 0 1 1 185.7 92v.1l.1.1v.1h.1v.2h.1v.1h.1v.2h.1v.1l.1.1v.1h.1v.1a22.1 22.1 0 0 1 0 .1h.1v.1l.1.1v.1h.1v.2h.1v.2h.1v.1l.1.1v.1h.1v.2h.1v.2h.1v.1l.1.1v.1h.1v.2h.1v.2h.1v.2h.1v.2h.1v.1l.1.1v.1h.1v.2l.1.1v.1h.1v.2h.1v.2h.1v.2h.1v.2h.1v.2h.1v.2h.1a12.6 12.6 0 0 1 0 .1v.1h.1v.2h.1v.1a1.9 1.9 0 0 0 0 .1h.1v.2h.1v.2h.1v.2h.1v.2l.1.1a10 10 0 0 1 0 .1v.1h.1v.2h.1v.2h.1v.1a3 3 0 0 1 0 .1h.1v.2l.1.1v.1l.1.1v.1a22.5 22.5 0 0 1 0 .1h.1a1 1 0 0 0 0 .1v.1h.1v.2l.1.1v.1a1.7 1.7 0 0 0 .1.1v.2h.1v.2l.1.1v.2h.1v.2l.1.1v.1a11.5 11.5 0 0 0 .1.2v.1h.1v.4h.1v.2l.1.1v.2h.1v.3h.1v.3a14 14 0 0 1 .1 0v.2h.1v.3h.1v.2l.1.1v.2h.1v.3h.1v.3h.1v.3h.1v.3h.1v.3h.1v.2h.1v.4h.1v.3a8.4 8.4 0 0 1 .1 0v.1a57.4 57.4 0 0 0 0 .1v.1h.1v.4h.1v.3h.1v.3l.1.1v.3h.1v.3h.1a2.4 2.4 0 0 1 0 .1v.2h.1v.1a1 1 0 0 1 0 .2l.1.1v.4h.1v.4h.1v.2a9.2 9.2 0 0 0 0 .1v.1h.1v.1a9.4 9.4 0 0 0 0 .1v.2l.1.1v.2a2 2 0 0 1 0 .1l.1.1v.4h.1v.4h.1v.4a2 2 0 0 1 0 .1h.1v.4h.1v.1a15.4 15.4 0 0 1 0 .1v.3l.1.1v.4l.1.1v.5h.1v.1a5 5 0 0 1 0 .1 3.9 3.9 0 0 1 0 .1v.2l.1.1v.3a15.4 15.4 0 0 1 0 .2h.1v.4a3.5 3.5 0 0 0 0 .1v.1l.1.1v.5a3.4 3.4 0 0 1 0 .1h.1a4.7 4.7 0 0 0 0 .1v.1a3 3 0 0 1 0 .1v.2a6.7 6.7 0 0 0 0 .2h.1v.3a11 11 0 0 1 0 .1v.2a84.4 84.4 0 0 1 0 .2h.1v.3a47.7 47.7 0 0 1 0 .2v.4h.1a15.4 15.4 0 0 1 0 .1v.6a6.1 6.1 0 0 0 0 .1 90.4 90.4 0 0 1 .1.3v.1a58.2 58.2 0 0 1 0 .2v.2a98.4 98.4 0 0 1 0 .1 60.3 60.3 0 0 1 0 .2v.1a61.4 61.4 0 0 1 0 .1h.1v1.2l.2 1.6a68.3 68.3 0 0 1-5.9 30.3l-13.7-6a53 53 0 1 0-20.3 23.3l8 12.7Z" fill="#3a209e"/><path d="M173 153a15 15 0 1 0 0 30 15 15 0 0 0 0-30m0-9a24 24 0 1 1 0 48 24 24 0 0 1 0-48Z" fill="#3a209e"/>
</svg>
