<svg xmlns="http://www.w3.org/2000/svg" width="100%" height="100%" viewBox="0 0 256 256">
	<circle cx="69" cy="69" r="69" transform="translate(59 59)" fill="#fff"/>
	<path d="M67.092 128c0 33.556 27.417 60.759 61.236 60.759a61.272 61.272 0 0 0 55.874-35.857c-2.67-8.095-4.98-22.336 4.234-36.571a59.942 59.942 0 0 0-1.476-5.919c-28.256 27.844-51.068 30.452-68.244 30-.158 0-.736-.1-.89-.442 0 0-.25-1.113.482-1.113 32.906 0 51.646-19.213 66.957-33.261a60.1 60.1 0 0 0-2.838-6.087c-16.502-4.508-22.848-17.923-25.102-25.04a61.345 61.345 0 0 0-29-7.229c-33.816 0-61.233 27.203-61.233 60.76Zm77.906-42.45s23.378-2.524 30.263 26.141c-25.547-1.748-30.263-26.141-30.263-26.141Zm-9.354 12.061s20.727-.687 25.445 25.033c-22.438-3.221-25.445-25.033-25.445-25.033Zm-11.385 10.222s18.653-1.208 23.426 21.822c-20.275-2.262-23.426-21.822-23.426-21.822Zm51 3.858.077.006-.056.084-.019-.09Zm-60.925 4.265s16.391-1.063 20.584 19.173c-17.816-1.987-20.584-19.173-20.584-19.173Zm-13.131 1.984s15.744-1.019 19.773 18.419c-17.113-1.909-19.773-18.419-19.773-18.419Zm-13 .894s14.289-.924 17.945 16.716c-15.528-1.732-17.942-16.716-17.942-16.716Zm-14.129 2.583s11.987-3.127 17.151 11.207q-.843.068-1.635.067c-12.026.001-15.516-11.274-15.516-11.274Zm102.023 1.193-.027-.08.083.023-.056.057c8.923 26.69-6.97 41.216-6.97 41.216s-11.167-22.774 6.97-41.216Zm-15.008.034.066.01-.052.069Zm-13.4 7.011.061.007-.046.063c-.01-.024-.014-.046-.019-.07Zm15.27 2.314-.008-.08.071.044-.062.036c2.792 26.839-14.612 35.647-14.612 35.647s-5.623-23.897 14.611-35.647Zm-71.7.651-.024.046-.015-.043Zm43.659 2.509.052.006-.039.057c-.006-.023-.006-.042-.013-.063Zm-28.767.422.047.006-.035.048-.012-.054Zm-21.139 4.385s10.081-9.524 22.833 1.1c-3.895 3.3-7.581 4.438-10.81 4.438-7.125-.005-12.023-5.538-12.023-5.538Zm35.964-3.577.051.006-.039.055Zm26.5 3.085v-.072l.058.049-.059.023c-.239 24.063-16.477 29.383-16.477 29.383s-2.556-21.868 16.474-29.384ZM107.886 141v.062l-.037-.03Zm-8.289 13.053s5.373-13.868 20.806-11.167c-4.412 9.983-11.352 11.883-15.989 11.883a15.567 15.567 0 0 1-4.817-.716Zm20.828-11.216.023.057-.044-.008Zm12.659.848c0-.02.008-.041.011-.062l.044.053-.055.008c-3.693 20.685-18.459 21.992-18.459 21.992s.97-19.362 18.459-21.991Z" fill="#95bf3b" fill-rule="evenodd"/>
	<path d="M127.999 63.265A64.735 64.735 0 1 0 192.735 128a64.808 64.808 0 0 0-64.736-64.735m0 133.735a69 69 0 1 1 69-69 69.078 69.078 0 0 1-69 69" fill="#95bf3b" fill-rule="evenodd"/>
</svg>
